<?xml version="1.0" encoding="iso-8859-1"?>
<!-- Generator: Adobe Illustrator 19.0.0, SVG Export Plug-In . SVG Version: 6.00 Build 0)  -->
<svg version="1.1" id="Layer_1" xmlns="http://www.w3.org/2000/svg" xmlns:xlink="http://www.w3.org/1999/xlink" x="0px" y="0px"
	 viewBox="0 0 512 512" style="enable-background:new 0 0 512 512;" xml:space="preserve">
<g transform="translate(1 1)">
	<path style="fill:#FFFFFF;" d="M60.848,122.586h26.483v-35.31H60.848V122.586z"/>
	<path style="fill:#FCC309;" d="M316.848,502.172H193.262c-5.297,0-8.828-3.531-8.828-8.828V475.69c0-5.297,3.531-8.828,8.828-8.828
		h123.586c5.297,0,8.828,3.531,8.828,8.828v17.655C325.676,498.641,322.145,502.172,316.848,502.172"/>
	<path style="fill:#FFDD09;" d="M422.779,210.862c-1.766,0-3.531,0-5.297,0.883l-67.972-92.69c1.766-4.414,2.648-8.828,2.648-14.124
		c0-19.421-15.89-35.31-35.31-35.31c-13.241,0-24.717,7.062-30.014,17.655H87.331v35.31h199.503
		c6.179,10.593,17.655,17.655,30.014,17.655c3.531,0,6.179-0.883,9.71-1.766L391,230.283c-1.766,5.297-3.531,10.593-3.531,15.89
		s0.883,10.593,3.531,15.007L232.986,466.862h37.076L415.717,280.6c1.766,0,4.414,0.883,6.179,0.883
		c19.421,0,35.31-15.89,35.31-35.31S442.2,210.862,422.779,210.862"/>
	<g>
		<path style="fill:#FCC309;" d="M184.434,43.138c-24.717,0-44.138,19.421-44.138,44.138h88.276
			C228.572,62.559,209.152,43.138,184.434,43.138"/>
		<path style="fill:#FCC309;" d="M228.572,157.897h-88.276c-9.71,0-17.655-7.945-17.655-17.655v-17.655h123.586v17.655
			C246.228,149.952,238.283,157.897,228.572,157.897"/>
	</g>
	<g>
		<path style="fill:#FFDD09;" d="M122.641,236.462c-2.648,0-4.414-0.883-6.179-2.648c-3.531-3.531-3.531-8.828,0-12.359
			l24.717-24.717c3.531-3.531,8.828-3.531,12.359,0c3.531,3.531,3.531,8.828,0,12.359l-24.717,24.717
			C127.055,235.579,125.29,236.462,122.641,236.462z"/>
		<path style="fill:#FFDD09;" d="M184.434,255c-5.297,0-8.828-3.531-8.828-8.828v-44.138c0-5.297,3.531-8.828,8.828-8.828
			s8.828,3.531,8.828,8.828v44.138C193.262,251.469,189.731,255,184.434,255z"/>
		<path style="fill:#FFDD09;" d="M247.11,236.462c-2.648,0-4.414-0.883-6.179-2.648l-24.717-24.717
			c-3.531-3.531-3.531-8.828,0-12.359c3.531-3.531,8.828-3.531,12.359,0l24.717,24.717c3.531,3.531,3.531,8.828,0,12.359
			C252.407,235.579,249.759,236.462,247.11,236.462z"/>
		<path style="fill:#FFDD09;" d="M53.786,256.766l24.717-54.731l24.717,55.614c7.062,15.89-4.414,32.662-21.186,32.662h-6.179
			C58.2,290.31,46.724,272.655,53.786,256.766"/>
	</g>
	<path d="M316.848,511H193.262c-9.71,0-17.655-7.945-17.655-17.655V475.69c0-9.71,7.945-17.655,17.655-17.655h123.586
		c9.71,0,17.655,7.945,17.655,17.655v17.655C334.503,503.055,326.559,511,316.848,511z M193.262,475.69v17.655h123.586V475.69
		H193.262z"/>
	<path d="M228.572,166.724h-88.276c-15.007,0-26.483-11.476-26.483-26.483v-17.655c0-5.297,3.531-8.828,8.828-8.828h123.586
		c5.297,0,8.828,3.531,8.828,8.828v17.655C255.055,155.248,243.579,166.724,228.572,166.724z M131.469,131.414v8.828
		c0,5.297,3.531,8.828,8.828,8.828h88.276c5.297,0,8.828-3.531,8.828-8.828v-8.828H131.469z"/>
	<path d="M270.945,475.69h-37.076c-3.531,0-6.179-1.766-7.945-5.297c-1.766-2.648-0.883-6.179,0.883-9.71L381.29,259.414
		c-1.766-4.414-2.648-8.828-2.648-13.241c0-5.297,0.883-9.71,2.648-14.124l-58.262-82.979c-15.89,2.648-31.779-4.414-40.607-16.772
		H60.848c-5.297,0-8.828-3.531-8.828-8.828V87.276c0-5.297,3.531-8.828,8.828-8.828h220.69c7.945-10.593,21.186-17.655,35.31-17.655
		c24.717,0,44.138,19.421,44.138,44.138c0,4.414-0.883,8.828-1.766,12.359l61.793,84.745c0.883,0,0.883,0,1.766,0
		c24.717,0,44.138,19.421,44.138,44.138s-19.421,44.138-44.138,44.138c-0.883,0-1.766,0-2.648,0L278.007,472.159
		C276.241,474.807,273.593,475.69,270.945,475.69z M251.524,458.034h15.007l143.007-182.731c1.766-2.648,5.297-3.531,8.828-3.531
		c1.766,0,2.648,0.883,4.414,0.883c15.007,0,26.483-11.476,26.483-26.483c0-15.007-11.476-26.483-26.483-26.483
		c-1.766,0-2.648,0-4.414,0.883c-3.531,0.883-6.179-0.883-8.828-3.531l-67.972-92.69c-1.766-2.648-2.648-6.179-0.883-8.828
		c1.766-3.531,2.648-7.062,2.648-10.593c0-15.007-11.476-26.483-26.483-26.483c-9.71,0-17.655,5.297-22.952,13.241
		c-1.766,2.648-4.414,4.414-7.945,4.414H69.676v17.655h217.159c3.531,0,6.179,1.766,7.945,4.414
		c4.414,7.945,12.359,13.241,22.069,13.241c1.766,0,4.414,0,7.062-0.883c3.531-0.883,7.062,0,9.71,3.531l64.441,91.807
		c1.766,2.648,1.766,6.179,0.883,8.828c-1.766,3.531-2.648,7.945-2.648,11.476c0,3.531,0.883,7.945,2.648,11.476
		c1.766,2.648,0.883,6.179-0.883,8.828L251.524,458.034z"/>
	<path d="M78.503,210.862c-5.297,0-8.828-3.531-8.828-8.828v-79.448c0-5.297,3.531-8.828,8.828-8.828
		c5.297,0,8.828,3.531,8.828,8.828v79.448C87.331,207.331,83.8,210.862,78.503,210.862z"/>
	<path d="M228.572,96.103h-88.276c-5.297,0-8.828-3.531-8.828-8.828c0-29.131,23.834-52.966,52.966-52.966
		S237.4,58.145,237.4,87.276C237.4,92.572,233.869,96.103,228.572,96.103z M150.007,78.448h67.972
		c-3.531-15.007-17.655-26.483-34.428-26.483S154.421,63.441,150.007,78.448z"/>
	<path d="M184.434,51.966c-5.297,0-8.828-3.531-8.828-8.828V7.828c0-5.297,3.531-8.828,8.828-8.828s8.828,3.531,8.828,8.828v35.31
		C193.262,48.434,189.731,51.966,184.434,51.966z"/>
	<path style="fill:#020001;" d="M82.034,299.138h-6.179c-11.476,0-21.186-5.297-27.366-15.007
		c-6.179-9.71-7.062-21.186-2.648-30.897l0,0l24.717-54.731c1.766-3.531,4.414-5.297,7.945-5.297l0,0
		c3.531,0,7.062,1.766,7.945,5.297l24.717,55.614c4.414,9.71,3.531,21.186-2.648,30.897
		C103.221,293.841,92.628,299.138,82.034,299.138z M61.731,261.179c-1.766,4.414-1.766,9.71,0.883,14.124
		c3.531,4.414,7.945,6.179,13.241,6.179h6.179c5.297,0,9.71-2.648,12.359-7.062c2.648-4.414,3.531-9.71,0.883-14.124l-16.772-36.193
		L61.731,261.179z"/>
	<path d="M122.641,226.752c-2.648,0-4.414-0.883-6.179-2.648c-3.531-3.531-3.531-8.828,0-12.359l24.717-24.717
		c3.531-3.531,8.828-3.531,12.359,0c3.531,3.531,3.531,8.828,0,12.359l-24.717,24.717
		C127.055,225.869,125.29,226.752,122.641,226.752z"/>
	<path d="M184.434,246.172c-5.297,0-8.828-3.531-8.828-8.828v-44.138c0-5.297,3.531-8.828,8.828-8.828s8.828,3.531,8.828,8.828
		v44.138C193.262,241.759,189.731,246.172,184.434,246.172z"/>
	<path d="M247.11,226.752c-2.648,0-4.414-0.883-6.179-2.648l-24.717-24.717c-3.531-3.531-3.531-8.828,0-12.359
		c3.531-3.531,8.828-3.531,12.359,0l24.717,24.717c3.531,3.531,3.531,8.828,0,12.359
		C252.407,225.869,249.759,226.752,247.11,226.752z"/>
</g>
<g>
</g>
<g>
</g>
<g>
</g>
<g>
</g>
<g>
</g>
<g>
</g>
<g>
</g>
<g>
</g>
<g>
</g>
<g>
</g>
<g>
</g>
<g>
</g>
<g>
</g>
<g>
</g>
<g>
</g>
</svg>
